<?xml version="1.0" encoding="UTF-8" standalone="no"?>
<!DOCTYPE svg PUBLIC "-//W3C//DTD SVG 1.1//EN" "http://www.w3.org/Graphics/SVG/1.1/DTD/svg11.dtd">
<svg version="1.1" xmlns="http://www.w3.org/2000/svg" xmlns:xlink="http://www.w3.org/1999/xlink" preserveAspectRatio="xMidYMid meet" viewBox="0 0 75 100" width="75" height="100"><defs><path d="M5.05 36.72C5.05 59.57 38.06 98.62 38.06 98.62C38.06 98.62 71.01 58.45 71.01 36.72C71.01 18.53 56.22 3.74 38.03 3.74C19.85 3.74 5.05 18.53 5.05 36.72ZM38.03 50.49C34.43 50.49 30.82 49.12 28.08 46.37C22.59 40.89 22.59 31.96 28.08 26.47C30.74 23.82 34.27 22.35 38.03 22.35C41.79 22.35 45.32 23.82 47.98 26.47C53.47 31.96 53.47 40.89 47.98 46.37C45.24 49.12 41.63 50.49 38.03 50.49Z" id="e4x9hZouFg"></path><path d="M63.03 34.8C63.03 48.64 51.79 59.88 37.95 59.88C24.1 59.88 12.86 48.64 12.86 34.8C12.86 20.95 24.1 9.71 37.95 9.71C51.79 9.71 63.03 20.95 63.03 34.8Z" id="caH8bBhT1"></path><path d="M44.36 30.72C44.44 26.34 42.31 22.1 38.03 18.09C33.75 22.1 31.63 26.34 31.71 30.72C31.82 36.8 36.18 41.65 38.03 43.44C39.88 41.65 44.25 36.8 44.36 30.72Z" id="aHSH6g8io"></path><path d="M33.98 42.85C33.32 42.03 32.63 41.09 31.99 40.04C31.13 38.62 30.46 37.19 29.98 35.76C28.02 36.74 25.79 37.44 23.35 37.81C22.95 37.87 22.57 37.91 22.19 37.95C22.19 38.06 22.19 38.17 22.19 38.27C22.3 44.36 26.67 49.21 28.52 51C29.88 49.69 32.58 46.73 33.98 42.85Z" id="dRF2R6WiD"></path><path d="M57.2 35.51C57.24 32.93 56.9 26.41 52.67 22.03C49.98 19.24 46.13 17.75 41.2 17.58C45.11 21.72 47.05 26.15 46.96 30.78C46.94 31.57 46.86 32.37 46.73 33.17C50.69 35.34 55.17 35.54 57.2 35.51Z" id="bz854yGlw"></path><path d="M29.34 33.17C29.2 32.37 29.12 31.57 29.11 30.78C29.02 26.15 30.95 21.72 34.86 17.58C29.93 17.75 26.07 19.24 23.38 22.04C19.15 26.44 18.81 32.93 18.86 35.5C20.89 35.54 25.38 35.33 29.34 33.17Z" id="h3FARY8DRQ"></path><path d="M53.8 38.27C53.8 38.16 53.8 38.06 53.8 37.95C53.45 37.91 53.09 37.86 52.72 37.81C50.28 37.44 48.04 36.74 46.08 35.76C45.6 37.19 44.93 38.62 44.07 40.04C43.41 41.12 42.71 42.08 42.04 42.91C43.44 46.76 46.12 49.69 47.47 51C49.33 49.21 53.69 44.36 53.8 38.27Z" id="b5gXPich2"></path><path d="M43.5 50.52C43.23 50.19 42.95 49.83 42.68 49.46C41.62 48.03 40.76 46.55 40.1 45.05C40.01 45.14 39.92 45.23 39.84 45.31C39.72 45.43 39.12 46.01 38.03 47.06C36.95 46.01 36.35 45.43 36.23 45.31C36.13 45.22 36.02 45.11 35.91 45C35.25 46.52 34.38 48.01 33.32 49.46C33.06 49.81 32.8 50.15 32.54 50.46C33.92 54.39 36.66 57.38 38.03 58.71C39.39 57.39 42.11 54.42 43.5 50.52Z" id="fGyBLzPAt"></path><path d="M33.86 12.74L42.04 12.74L42.04 15.86L33.86 15.86L33.86 12.74Z" id="amH9pN2my"></path></defs><g><g><g><use xlink:href="#e4x9hZouFg" opacity="1" fill="#daa520" fill-opacity="1"></use><g><use xlink:href="#e4x9hZouFg" opacity="1" fill-opacity="0" stroke="#000000" stroke-width="1" stroke-opacity="0"></use></g></g><g><use xlink:href="#caH8bBhT1" opacity="1" fill="#ffffff" fill-opacity="1"></use></g><g><use xlink:href="#aHSH6g8io" opacity="1" fill="#000000" fill-opacity="1"></use><g><use xlink:href="#aHSH6g8io" opacity="1" fill-opacity="0" stroke="#000000" stroke-width="1" stroke-opacity="0"></use></g></g><g><use xlink:href="#dRF2R6WiD" opacity="1" fill="#000000" fill-opacity="1"></use><g><use xlink:href="#dRF2R6WiD" opacity="1" fill-opacity="0" stroke="#000000" stroke-width="1" stroke-opacity="0"></use></g></g><g><use xlink:href="#bz854yGlw" opacity="1" fill="#000000" fill-opacity="1"></use><g><use xlink:href="#bz854yGlw" opacity="1" fill-opacity="0" stroke="#000000" stroke-width="1" stroke-opacity="0"></use></g></g><g><use xlink:href="#h3FARY8DRQ" opacity="1" fill="#000000" fill-opacity="1"></use><g><use xlink:href="#h3FARY8DRQ" opacity="1" fill-opacity="0" stroke="#000000" stroke-width="1" stroke-opacity="0"></use></g></g><g><use xlink:href="#b5gXPich2" opacity="1" fill="#000000" fill-opacity="1"></use><g><use xlink:href="#b5gXPich2" opacity="1" fill-opacity="0" stroke="#000000" stroke-width="1" stroke-opacity="0"></use></g></g><g><use xlink:href="#fGyBLzPAt" opacity="1" fill="#000000" fill-opacity="1"></use><g><use xlink:href="#fGyBLzPAt" opacity="1" fill-opacity="0" stroke="#000000" stroke-width="1" stroke-opacity="0"></use></g></g><g><use xlink:href="#amH9pN2my" opacity="1" fill="#000000" fill-opacity="1"></use></g></g></g></svg>