<?xml version="1.0" encoding="UTF-8" standalone="no"?>
<!DOCTYPE svg PUBLIC "-//W3C//DTD SVG 1.1//EN" "http://www.w3.org/Graphics/SVG/1.1/DTD/svg11.dtd">
<svg version="1.1" xmlns="http://www.w3.org/2000/svg" xmlns:xlink="http://www.w3.org/1999/xlink" preserveAspectRatio="xMidYMid meet" viewBox="0 0 100 100" width="100" height="100"><defs><path d="M62.94 40.83C63.1 31.88 58.75 23.2 50 15C41.25 23.2 36.91 31.88 37.07 40.83C37.29 53.27 46.21 63.19 50 66.85C53.79 63.19 62.72 53.27 62.94 40.83Z" id="e4QG7D0nf"></path><path d="M41.71 65.64C40.36 63.97 38.96 62.05 37.65 59.9C35.89 57 34.52 54.07 33.54 51.14C29.53 53.15 24.96 54.57 19.97 55.33C19.16 55.45 18.37 55.55 17.61 55.63C17.61 55.85 17.61 56.07 17.61 56.28C17.83 68.73 26.76 78.65 30.55 82.31C33.33 79.63 38.86 73.58 41.71 65.64Z" id="ckcyOLBI"></path><path d="M89.2 50.62C89.29 45.36 88.59 32.03 79.95 23.07C74.44 17.35 66.56 14.3 56.48 13.96C64.48 22.43 68.44 31.5 68.26 40.97C68.22 42.58 68.07 44.21 67.78 45.84C75.88 50.29 85.05 50.7 89.2 50.62Z" id="i2LkvP4R7m"></path><path d="M32.22 45.84C31.94 44.21 31.78 42.58 31.75 40.97C31.57 31.5 35.52 22.43 43.52 13.96C33.43 14.3 25.55 17.36 20.03 23.09C11.38 32.08 10.7 45.36 10.8 50.62C14.95 50.69 24.13 50.27 32.22 45.84Z" id="a18mCZLVxN"></path><path d="M82.25 56.28C82.25 56.06 82.25 55.84 82.25 55.61C81.54 55.54 80.8 55.44 80.03 55.33C75.05 54.57 70.48 53.16 66.46 51.14C65.49 54.08 64.11 57 62.35 59.9C61.01 62.1 59.58 64.07 58.2 65.76C61.06 73.64 66.55 79.64 69.31 82.31C73.1 78.65 82.03 68.73 82.25 56.28Z" id="dUbetAZnO"></path><path d="M61.19 81.33C60.64 80.65 60.07 79.93 59.5 79.16C57.34 76.23 55.58 73.21 54.23 70.15C54.05 70.33 53.87 70.51 53.7 70.68C53.45 70.91 52.22 72.1 50 74.24C47.79 72.1 46.56 70.91 46.31 70.68C46.11 70.48 45.89 70.27 45.67 70.05C44.32 73.14 42.54 76.2 40.36 79.16C39.83 79.88 39.3 80.56 38.77 81.21C41.6 89.24 47.2 95.37 50 98.07C52.79 95.38 58.35 89.31 61.19 81.33Z" id="g6NqGok1X"></path><path d="M41.47 4.07L58.2 4.07L58.2 10.44L41.47 10.44L41.47 4.07Z" id="aLqzPYbBO"></path><path d="M28.3 36.7C28.3 51.74 50.02 77.43 50.02 77.43C50.02 77.43 71.7 51 71.7 36.7C71.7 24.74 61.97 15 50 15C38.04 15 28.3 24.74 28.3 36.7ZM50 45.76C47.63 45.76 45.26 44.86 43.46 43.06C39.85 39.45 39.85 33.57 43.46 29.96C45.2 28.21 47.53 27.25 50 27.25C52.48 27.25 54.8 28.21 56.55 29.96C60.16 33.57 60.16 39.45 56.55 43.06C54.75 44.86 52.37 45.76 50 45.76Z" id="a55z6NJ3Gw"></path></defs><g><g><g><use xlink:href="#e4QG7D0nf" opacity="1" fill="#000000" fill-opacity="1"></use><g><use xlink:href="#e4QG7D0nf" opacity="1" fill-opacity="0" stroke="#000000" stroke-width="1" stroke-opacity="0"></use></g></g><g><use xlink:href="#ckcyOLBI" opacity="1" fill="#000000" fill-opacity="1"></use><g><use xlink:href="#ckcyOLBI" opacity="1" fill-opacity="0" stroke="#000000" stroke-width="1" stroke-opacity="0"></use></g></g><g><use xlink:href="#i2LkvP4R7m" opacity="1" fill="#000000" fill-opacity="1"></use><g><use xlink:href="#i2LkvP4R7m" opacity="1" fill-opacity="0" stroke="#000000" stroke-width="1" stroke-opacity="0"></use></g></g><g><use xlink:href="#a18mCZLVxN" opacity="1" fill="#000000" fill-opacity="1"></use><g><use xlink:href="#a18mCZLVxN" opacity="1" fill-opacity="0" stroke="#000000" stroke-width="1" stroke-opacity="0"></use></g></g><g><use xlink:href="#dUbetAZnO" opacity="1" fill="#000000" fill-opacity="1"></use><g><use xlink:href="#dUbetAZnO" opacity="1" fill-opacity="0" stroke="#000000" stroke-width="1" stroke-opacity="0"></use></g></g><g><use xlink:href="#g6NqGok1X" opacity="1" fill="#000000" fill-opacity="1"></use><g><use xlink:href="#g6NqGok1X" opacity="1" fill-opacity="0" stroke="#000000" stroke-width="1" stroke-opacity="0"></use></g></g><g><use xlink:href="#aLqzPYbBO" opacity="1" fill="#000000" fill-opacity="1"></use></g><g><use xlink:href="#a55z6NJ3Gw" opacity="1" fill="#daa520" fill-opacity="1"></use><g><use xlink:href="#a55z6NJ3Gw" opacity="1" fill-opacity="0" stroke="#000000" stroke-width="1" stroke-opacity="0"></use></g></g></g></g></svg>